<svg xmlns="http://www.w3.org/2000/svg" width="18" height="18" fill="none"><path stroke="#fff" stroke-opacity=".5" stroke-width="1.5" d="M2.473 3.925a1.95 1.95 0 0 1 1.452-1.452 4.158 4.158 0 0 1 1.9 0 1.95 1.95 0 0 1 1.452 1.452 4.158 4.158 0 0 1 0 1.9 1.95 1.95 0 0 1-1.452 1.452 4.158 4.158 0 0 1-1.9 0 1.95 1.95 0 0 1-1.452-1.452 4.158 4.158 0 0 1 0-1.9ZM2.473 12.175a1.95 1.95 0 0 1 1.452-1.452 4.156 4.156 0 0 1 1.9 0 1.95 1.95 0 0 1 1.452 1.452 4.159 4.159 0 0 1 0 1.9 1.95 1.95 0 0 1-1.452 1.452 4.156 4.156 0 0 1-1.9 0 1.95 1.95 0 0 1-1.452-1.452 4.159 4.159 0 0 1 0-1.9ZM10.723 3.925a1.95 1.95 0 0 1 1.452-1.452 4.159 4.159 0 0 1 1.9 0 1.95 1.95 0 0 1 1.452 1.452 4.156 4.156 0 0 1 0 1.9 1.95 1.95 0 0 1-1.452 1.452 4.159 4.159 0 0 1-1.9 0 1.95 1.95 0 0 1-1.452-1.452 4.156 4.156 0 0 1 0-1.9ZM10.723 12.175a1.949 1.949 0 0 1 1.452-1.452 4.157 4.157 0 0 1 1.9 0c.72.169 1.283.732 1.452 1.452a4.157 4.157 0 0 1 0 1.9 1.949 1.949 0 0 1-1.452 1.452 4.157 4.157 0 0 1-1.9 0 1.949 1.949 0 0 1-1.452-1.452 4.157 4.157 0 0 1 0-1.9Z"/></svg>